<svg width="368" height="367" viewBox="0 0 368 367" fill="none" xmlns="http://www.w3.org/2000/svg">
<path d="M208.299 366.996C207.955 366.996 207.612 366.905 207.304 366.727L40.5776 268.649C40.1048 268.373 39.772 267.91 39.6565 267.374C39.5409 266.838 39.653 266.282 39.9682 265.833L174.253 75.0046C174.876 74.1184 176.099 73.9047 176.985 74.5282C177.871 75.1517 178.085 76.3741 177.461 77.2603L44.4051 266.349L206.513 361.71L211.778 264.287C211.837 263.205 212.748 262.385 213.841 262.434C214.923 262.494 215.75 263.418 215.694 264.497L210.254 365.139C210.216 365.822 209.827 366.439 209.221 366.761C208.934 366.918 208.615 366.995 208.296 366.995L208.299 366.996ZM215.328 236.98C215.293 236.98 215.258 236.98 215.22 236.976C214.137 236.917 213.311 235.992 213.367 234.913L225.584 8.89046L194.393 53.2127C193.77 54.0988 192.547 54.3125 191.661 53.689C190.775 53.0656 190.561 51.8432 191.185 50.957L226.309 1.04852C226.814 0.333985 227.728 0.0362774 228.554 0.323489C229.381 0.6107 229.917 1.40926 229.871 2.28145L217.283 235.128C217.227 236.172 216.362 236.98 215.328 236.98Z" fill="white"/>
<path d="M365.216 268.919H255.257C254.175 268.919 253.296 268.04 253.296 266.958C253.296 265.875 254.175 264.996 255.257 264.996H362.122L285.751 102.709L67.2336 185.595C66.2178 185.98 65.0865 185.469 64.7047 184.456C64.3194 183.444 64.8308 182.309 65.843 181.927L286.064 98.3975C287.021 98.0368 288.096 98.4676 288.534 99.3958L366.992 266.122C367.279 266.728 367.234 267.443 366.873 268.01C366.516 268.577 365.892 268.921 365.22 268.921L365.216 268.919ZM225.838 268.919H41.5728C40.9178 268.919 40.3048 268.59 39.9406 268.047L0.711418 209.203C0.378674 208.706 0.294612 208.086 0.476743 207.515C0.658874 206.948 1.08969 206.492 1.65012 206.279L38.3363 192.362C39.3521 191.977 40.4834 192.488 40.8652 193.501C41.2505 194.513 40.7391 195.648 39.7269 196.03L5.34152 209.07L42.6231 264.996H225.839C226.921 264.996 227.8 265.875 227.8 266.957C227.797 268.039 226.918 268.919 225.836 268.919L225.838 268.919Z" fill="white"/>
<path d="M2.34323 210.08C1.88089 210.08 1.42209 209.915 1.05777 209.6C0.511361 209.13 0.269678 208.395 0.427303 207.691L39.6565 31.1552C39.7721 30.6298 40.1013 30.1744 40.5636 29.8978C41.026 29.6211 41.5829 29.5475 42.0977 29.6911L131.029 54.5915C132.073 54.8823 132.682 55.9645 132.388 57.0083C132.097 58.0521 131.012 58.6616 129.971 58.3673L43.0332 34.0246L5.04056 204.983L107.655 166.062C108.667 165.677 109.802 166.188 110.184 167.201C110.569 168.213 110.058 169.348 109.046 169.73L3.04171 209.947C2.81404 210.031 2.57938 210.073 2.34471 210.073L2.34323 210.08ZM135.866 159.436C135.074 159.436 134.328 158.953 134.03 158.171C133.645 157.159 134.157 156.024 135.169 155.643L280.483 100.522L158.312 66.3122C157.268 66.0215 156.658 64.9392 156.953 63.8954C157.243 62.8516 158.326 62.2421 159.37 62.5364L287.288 98.3537C288.104 98.5814 288.682 99.3064 288.721 100.154C288.759 101.002 288.248 101.776 287.456 102.077L136.565 159.313C136.33 159.394 136.092 159.436 135.865 159.436L135.866 159.436Z" fill="white"/>
<path d="M306.367 239.499C305.849 239.499 305.348 239.282 304.973 238.921C304.609 238.557 304.406 238.049 304.406 237.538C304.406 237.016 304.613 236.508 304.973 236.144C305.709 235.419 307.022 235.419 307.748 236.144C308.119 236.515 308.325 237.016 308.325 237.538C308.325 238.049 308.119 238.557 307.748 238.921C307.387 239.282 306.886 239.499 306.367 239.499Z" fill="white"/>
<path d="M276.948 239.499C276.429 239.499 275.929 239.282 275.564 238.921C275.193 238.557 274.986 238.049 274.986 237.538C274.986 237.016 275.193 236.508 275.564 236.144C276.279 235.419 277.603 235.419 278.331 236.144C278.703 236.515 278.909 237.016 278.909 237.538C278.909 238.049 278.703 238.557 278.342 238.921C277.967 239.282 277.466 239.499 276.948 239.499H276.948Z" fill="white"/>
<path d="M247.528 239.499C247.01 239.499 246.509 239.282 246.134 238.921C245.77 238.557 245.567 238.049 245.567 237.538C245.567 237.016 245.773 236.519 246.134 236.144C246.87 235.419 248.183 235.419 248.908 236.144C249.279 236.515 249.486 237.016 249.486 237.538C249.486 238.049 249.279 238.557 248.919 238.921C248.547 239.282 248.047 239.499 247.528 239.499H247.528Z" fill="white"/>
<path d="M247.528 210.08C247.017 210.08 246.509 209.863 246.134 209.502C245.77 209.138 245.567 208.63 245.567 208.118C245.567 207.596 245.773 207.099 246.134 206.724C246.87 205.999 248.183 205.999 248.908 206.724C249.279 207.095 249.486 207.596 249.486 208.118C249.486 208.63 249.279 209.137 248.908 209.502C248.547 209.863 248.04 210.08 247.528 210.08Z" fill="white"/>
<path d="M247.528 180.66C247.01 180.66 246.509 180.443 246.145 180.082C245.773 179.718 245.567 179.21 245.567 178.699C245.567 178.177 245.773 177.679 246.134 177.305C246.87 176.579 248.183 176.579 248.908 177.305C249.279 177.676 249.486 178.177 249.486 178.699C249.486 179.21 249.279 179.718 248.919 180.082C248.547 180.443 248.047 180.66 247.528 180.66Z" fill="white"/>
</svg>
