<svg width="15" height="18" viewBox="0 0 15 18" fill="none" xmlns="http://www.w3.org/2000/svg">
<path d="M15 4.14221V17.9999H0.383667V0H10.973L12.8486 1.92934L15 4.14221Z" fill="#B12A27"/>
<path d="M7.00995 1.20557H0V4.43179H7.00995V1.20557Z" fill="#F2F2F2"/>
<path d="M2.51445 2.26354C2.48351 2.18669 2.4423 2.11778 2.38563 2.05949C2.32896 2.00121 2.25937 1.9535 2.1795 1.92168C2.09706 1.88723 2.0043 1.87134 1.90125 1.87134H1.13086V3.91726H1.51992V3.14603H1.90125C2.0043 3.14603 2.09706 3.13014 2.1795 3.09569C2.25937 3.06387 2.32892 3.0162 2.38563 2.95788C2.44233 2.89959 2.48355 2.83332 2.51445 2.75383C2.54278 2.67698 2.55826 2.59482 2.55826 2.51002C2.55823 2.42255 2.54278 2.34039 2.51445 2.26354ZM2.09446 2.7114C2.04292 2.76174 1.9708 2.78825 1.8832 2.78825H1.51992V2.22642H1.8832C1.9708 2.22642 2.04295 2.25292 2.09446 2.3059C2.1434 2.35625 2.16917 2.42515 2.16917 2.50995C2.16921 2.59215 2.14344 2.66105 2.09446 2.7114Z" fill="#B12A27"/>
<path d="M4.3747 2.66348C4.37214 2.59194 4.36954 2.52834 4.36182 2.47002C4.35409 2.41169 4.34121 2.35871 4.32316 2.30837C4.30512 2.26066 4.28194 2.21295 4.25101 2.17055C4.18146 2.0672 4.09642 1.99034 4.0011 1.94264C3.90317 1.89493 3.78724 1.87109 3.6507 1.87109H2.93445V3.91701H3.6507C3.78724 3.91701 3.90317 3.89318 4.0011 3.84547C4.09642 3.79776 4.18146 3.72091 4.25101 3.61755C4.28194 3.57515 4.30512 3.52745 4.32316 3.47974C4.34121 3.42939 4.35409 3.37638 4.36182 3.31809C4.36954 3.2598 4.37211 3.19617 4.3747 3.12462C4.37727 3.05572 4.37727 2.97887 4.37727 2.89407C4.37727 2.80927 4.37727 2.73239 4.3747 2.66348ZM3.98565 3.10079C3.98565 3.16175 3.98049 3.20946 3.97533 3.25186C3.97016 3.29162 3.96244 3.32871 3.95215 3.35521C3.94187 3.38436 3.92638 3.41087 3.90837 3.4347C3.84394 3.5195 3.74606 3.55926 3.61724 3.55926H3.32094V2.22621H3.61724C3.74606 2.22621 3.84398 2.26861 3.90837 2.3534C3.92642 2.37724 3.94187 2.40111 3.95215 2.43025C3.96244 2.4594 3.9702 2.49385 3.97533 2.53625C3.98049 2.57601 3.98565 2.62636 3.98565 2.68464C3.98821 2.74297 3.98821 2.81451 3.98821 2.894C3.98825 2.97356 3.98825 3.04246 3.98565 3.10079Z" fill="#B12A27"/>
<path d="M6.03653 2.22621V1.87109H4.7251V3.91701H5.11415V3.08754H5.89999V2.72975H5.11415V2.22621H6.03653Z" fill="#B12A27"/>
<path d="M2.51445 2.26354C2.48351 2.18669 2.4423 2.11778 2.38563 2.05949C2.32896 2.00121 2.25937 1.9535 2.1795 1.92168C2.09706 1.88723 2.0043 1.87134 1.90125 1.87134H1.13086V3.91726H1.51992V3.14603H1.90125C2.0043 3.14603 2.09706 3.13014 2.1795 3.09569C2.25937 3.06387 2.32892 3.0162 2.38563 2.95788C2.44233 2.89959 2.48355 2.83332 2.51445 2.75383C2.54278 2.67698 2.55826 2.59482 2.55826 2.51002C2.55823 2.42255 2.54278 2.34039 2.51445 2.26354ZM2.09446 2.7114C2.04292 2.76174 1.9708 2.78825 1.8832 2.78825H1.51992V2.22642H1.8832C1.9708 2.22642 2.04295 2.25292 2.09446 2.3059C2.1434 2.35625 2.16917 2.42515 2.16917 2.50995C2.16921 2.59215 2.14344 2.66105 2.09446 2.7114Z" fill="#B12A27"/>
<path opacity="0.08" d="M15 4.14232V18H0.383667V14.7509L7.21646 7.7227L7.62097 7.30663L7.84511 7.07604L8.21872 6.69178L8.66188 6.23594L12.8486 1.92944L15 4.14232Z" fill="#040000"/>
<path d="M15 4.14267H10.9725V0L15 4.14267Z" fill="#771B1B"/>
<path d="M12.9131 13.0309C12.8281 12.8772 12.7121 12.7314 12.5679 12.5989C12.4494 12.4876 12.3102 12.3843 12.153 12.2889C11.5192 11.9046 10.6149 11.7191 9.3859 11.7191H9.26225C9.19526 11.6555 9.1257 11.5919 9.05355 11.5256C8.58722 11.0937 8.21621 10.6246 7.92764 10.1025C8.49446 8.81714 8.76498 7.67228 8.73149 6.69701C8.72632 6.53269 8.70315 6.37899 8.66193 6.23587C8.6001 6.00531 8.49705 5.80123 8.35275 5.63427C8.35019 5.63164 8.35019 5.63164 8.34759 5.62896C8.11829 5.36396 7.79882 5.21289 7.47415 5.21289C7.14693 5.21289 6.84551 5.35865 6.62649 5.62633C6.41007 5.89134 6.29414 6.25443 6.28897 6.68109C6.28125 7.33302 6.33276 7.95051 6.441 8.52029C6.45129 8.56536 6.45905 8.61039 6.46934 8.65543C6.57755 9.17222 6.7373 9.66248 6.94339 10.1183C6.7012 10.6245 6.45645 11.0618 6.28638 11.3586C6.15756 11.5839 6.01585 11.8197 5.86899 12.0556C5.20684 12.1775 4.64515 12.3259 4.15564 12.5114C3.4935 12.7579 2.96274 13.0759 2.58141 13.4549C2.33406 13.6987 2.16658 13.9584 2.08414 14.2287C1.99654 14.507 2.0017 14.7853 2.09959 15.0344C2.18976 15.2649 2.35207 15.4584 2.56852 15.5909C2.62006 15.6227 2.67417 15.6492 2.73084 15.6731C2.89575 15.742 3.07608 15.7791 3.26416 15.7791C3.6996 15.7791 4.14789 15.5856 4.52662 15.2384C5.23258 14.5891 5.96171 13.545 6.39199 12.8851C6.74495 12.8294 7.12885 12.7817 7.56172 12.734C8.07187 12.681 8.52276 12.6492 8.93242 12.6333C9.05868 12.7499 9.17977 12.8612 9.29571 12.9672C9.93984 13.5582 10.4293 13.9849 10.8725 14.2843C10.8725 14.287 10.8751 14.287 10.8777 14.287C11.0529 14.4062 11.2203 14.5043 11.3878 14.5838C11.5759 14.6739 11.7666 14.7216 11.9624 14.7216C12.2097 14.7216 12.4416 14.6447 12.6348 14.5043C12.8306 14.3585 12.9723 14.1492 13.0368 13.9133C13.1115 13.6298 13.0677 13.3145 12.9131 13.0309ZM7.21652 7.72263C7.18046 7.39398 7.16497 7.05212 7.17014 6.6917C7.1753 6.34984 7.29639 6.11925 7.47415 6.11925C7.60813 6.11925 7.74984 6.24381 7.81423 6.48231C7.83228 6.55385 7.84516 6.63602 7.84773 6.72876C7.85289 6.84006 7.85029 6.95668 7.84516 7.07593C7.82972 7.41251 7.77301 7.77026 7.67512 8.15455C7.61586 8.40104 7.53858 8.6581 7.44326 8.92574C7.33505 8.54946 7.25774 8.14928 7.21652 7.72263ZM2.91896 14.6978C2.87514 14.5865 2.92412 14.3719 3.19208 14.1069C3.60174 13.704 4.24328 13.386 5.13732 13.1448C4.96729 13.3833 4.79981 13.6007 4.6375 13.7994C4.39014 14.1068 4.15311 14.3666 3.93926 14.5627C3.75633 14.7323 3.55536 14.8383 3.36472 14.8648C3.33122 14.8701 3.29773 14.8727 3.26423 14.8727C3.09672 14.8728 2.96018 14.8039 2.91896 14.6978ZM7.03615 11.8807L7.0542 11.8516L7.02587 11.8569C7.03103 11.8436 7.03875 11.8304 7.04648 11.8198C7.15469 11.6316 7.29123 11.3905 7.4381 11.1122L7.45098 11.1414L7.48448 11.0698C7.59269 11.2288 7.71122 11.3852 7.83488 11.5362C7.89414 11.6078 7.95597 11.6767 8.0178 11.7456L7.97658 11.7482L8.01264 11.7827C7.90699 11.7906 7.79622 11.8012 7.68541 11.8118C7.61586 11.8198 7.54371 11.8251 7.47156 11.833C7.32216 11.8489 7.1753 11.8648 7.03615 11.8807ZM11.3724 13.5344C11.0658 13.333 10.7231 13.0494 10.3006 12.6704C10.9009 12.734 11.3724 12.8692 11.7073 13.0706C11.8542 13.1581 11.965 13.2482 12.0397 13.3356C12.1633 13.4708 12.2071 13.5927 12.1839 13.6749C12.1633 13.757 12.0732 13.8127 11.9624 13.8127C11.8979 13.8127 11.831 13.7968 11.7614 13.7623C11.6429 13.704 11.5192 13.6325 11.3878 13.545C11.3827 13.545 11.3775 13.5397 11.3724 13.5344Z" fill="#F2F2F2"/>
</svg>
