<svg width="19" height="20" viewBox="0 0 19 20" fill="none" xmlns="http://www.w3.org/2000/svg">
<path opacity="0.5" fill-rule="evenodd" clip-rule="evenodd" d="M2.375 12.171C2.70292 12.171 2.96875 12.4369 2.96875 12.7648C2.96875 13.9011 2.97001 14.6937 3.05041 15.2917C3.12851 15.8726 3.27136 16.1802 3.49047 16.3993C3.70957 16.6184 4.01719 16.7613 4.5981 16.8394C5.19608 16.9198 5.98863 16.921 7.125 16.921H11.875C13.0114 16.921 13.8039 16.9198 14.4019 16.8394C14.9828 16.7613 15.2904 16.6184 15.5095 16.3993C15.7287 16.1802 15.8715 15.8726 15.9496 15.2917C16.03 14.6937 16.0312 13.9011 16.0312 12.7648C16.0312 12.4369 16.2971 12.171 16.625 12.171C16.9529 12.171 17.2188 12.4369 17.2188 12.7648V12.8082C17.2188 13.8909 17.2188 14.7636 17.1265 15.4499C17.0307 16.1625 16.8258 16.7624 16.3493 17.239C15.8727 17.7155 15.2728 17.9205 14.5602 18.0163C13.8738 18.1085 13.0011 18.1085 11.9185 18.1085H7.08156C5.99889 18.1085 5.12622 18.1085 4.43987 18.0163C3.72728 17.9205 3.1273 17.7155 2.65078 17.239C2.17426 16.7624 1.9693 16.1625 1.8735 15.4499C1.78122 14.7636 1.78123 13.8909 1.78125 12.8082C1.78125 12.7937 1.78125 12.7793 1.78125 12.7648C1.78125 12.4369 2.04708 12.171 2.375 12.171Z" fill="white"/>
<path fill-rule="evenodd" clip-rule="evenodd" d="M9.49992 14.1502C9.66664 14.1502 9.82561 14.0801 9.93811 13.9571L13.1048 10.4936C13.326 10.2515 13.3093 9.87598 13.0672 9.65471C12.8252 9.43344 12.4497 9.45022 12.2284 9.69223L10.0937 12.0271V3.26477C10.0937 2.93685 9.82783 2.67102 9.49992 2.67102C9.17201 2.67102 8.90617 2.93685 8.90617 3.26477V12.0271L6.77146 9.69223C6.55019 9.45022 6.17463 9.43344 5.93261 9.65471C5.6906 9.87598 5.67378 10.2515 5.89505 10.4936L9.06173 13.9571C9.17423 14.0801 9.33319 14.1502 9.49992 14.1502Z" fill="white"/>
</svg>
