<svg width="20" height="18" viewBox="0 0 20 18" fill="none" xmlns="http://www.w3.org/2000/svg">
<path d="M11.93 8.54995L4.41895 7.19995V17.1754C4.41903 17.2838 4.44004 17.3911 4.48077 17.4912C4.52151 17.5913 4.58116 17.6822 4.65633 17.7588C4.7315 17.8353 4.82072 17.896 4.91889 17.9374C5.01706 17.9788 5.12226 18.0001 5.22848 18H18.1891C18.2955 18.0002 18.4008 17.9791 18.4991 17.9378C18.5974 17.8965 18.6868 17.8358 18.7621 17.7592C18.8375 17.6827 18.8972 17.5917 18.938 17.4915C18.9789 17.3913 18.9999 17.2839 19 17.1754V13.5L11.93 8.54995Z" fill="#185C37"/>
<path d="M11.93 2.90668e-07H5.22848C5.12226 -9.06628e-05 5.01706 0.0211645 4.91889 0.0625523C4.82072 0.10394 4.7315 0.16465 4.65633 0.241216C4.58116 0.317781 4.52151 0.408703 4.48077 0.50879C4.44004 0.608877 4.41903 0.716169 4.41895 0.82454V4.50001L11.93 9.00001L15.9071 10.35L19 9.00001V4.50001L11.93 2.90668e-07Z" fill="#21A366"/>
<path d="M4.41895 4.5H11.93V9.00001H4.41895V4.5Z" fill="#107C41"/>
<path opacity="0.1" d="M9.79456 3.6001H4.41895V14.8501H9.79456C10.0088 14.849 10.2139 14.7619 10.3656 14.6075C10.5172 14.4532 10.6032 14.2441 10.6048 14.0256V4.42464C10.6032 4.2061 10.5172 3.99701 10.3656 3.84268C10.2139 3.68834 10.0088 3.60118 9.79456 3.6001Z" fill="black"/>
<path opacity="0.2" d="M9.35281 4.05005H4.41895V15.3001H9.35281C9.56701 15.299 9.77217 15.2118 9.92382 15.0575C10.0755 14.9031 10.1614 14.6941 10.163 14.4755V4.87459C10.1614 4.65605 10.0755 4.44696 9.92382 4.29263C9.77217 4.13829 9.56701 4.05114 9.35281 4.05005Z" fill="black"/>
<path opacity="0.2" d="M9.35281 4.05005H4.41895V14.4001H9.35281C9.56701 14.399 9.77217 14.3118 9.92382 14.1575C10.0755 14.0031 10.1614 13.7941 10.163 13.5755V4.87459C10.1614 4.65605 10.0755 4.44696 9.92382 4.29263C9.77217 4.13829 9.56701 4.05114 9.35281 4.05005Z" fill="black"/>
<path opacity="0.2" d="M8.91106 4.05005H4.41895V14.4001H8.91106C9.12526 14.399 9.33042 14.3118 9.48207 14.1575C9.63373 14.0031 9.71967 13.7941 9.72127 13.5755V4.87459C9.71967 4.65605 9.63373 4.44696 9.48207 4.29263C9.33042 4.13829 9.12526 4.05114 8.91106 4.05005Z" fill="black"/>
<path d="M0.81021 4.05005H8.91095C9.12554 4.04987 9.33141 4.13661 9.48334 4.29122C9.63526 4.44583 9.7208 4.65566 9.72116 4.87459V13.1255C9.7208 13.3445 9.63526 13.5543 9.48334 13.7089C9.33141 13.8635 9.12554 13.9502 8.91095 13.9501H0.81021C0.703933 13.9502 0.598662 13.9291 0.500415 13.8877C0.402168 13.8464 0.312871 13.7857 0.237627 13.7091C0.162383 13.6325 0.102668 13.5416 0.0618947 13.4414C0.0211213 13.3413 8.90091e-05 13.234 0 13.1255V4.87459C8.90091e-05 4.76616 0.0211213 4.65881 0.0618947 4.55868C0.102668 4.45855 0.162383 4.36759 0.237627 4.29102C0.312871 4.21445 0.402168 4.15375 0.500415 4.1124C0.598662 4.07106 0.703933 4.04987 0.81021 4.05005Z" fill="url(#paint0_linear_450_2793)"/>
<path d="M2.5105 11.6812L4.21438 8.9923L2.65368 6.3186H3.90699L4.75859 8.03068C4.83731 8.19268 4.89431 8.31314 4.92009 8.39345H4.93163C4.98727 8.2633 5.04631 8.13799 5.10806 8.01545L6.01869 6.32137H7.17226L5.57152 8.97984L7.21297 11.6833H5.98544L5.00152 9.80646C4.95583 9.72576 4.91701 9.64122 4.88548 9.55376H4.8692C4.84051 9.63897 4.80225 9.72052 4.7552 9.79676L3.7421 11.6812H2.5105Z" fill="white"/>
<path d="M18.1895 1.16218e-06H11.9297V4.50001H18.9997V0.824541C18.9996 0.716111 18.9786 0.608763 18.9378 0.508631C18.897 0.408499 18.8373 0.317546 18.7621 0.240971C18.6868 0.164397 18.5975 0.103701 18.4993 0.0623543C18.401 0.0210073 18.2958 -0.000180804 18.1895 1.16218e-06Z" fill="#33C481"/>
<path d="M11.9297 9H18.9997V13.5H11.9297V9Z" fill="#107C41"/>
<defs>
<linearGradient id="paint0_linear_450_2793" x1="1.69235" y1="3.40205" x2="8.22125" y2="14.4847" gradientUnits="userSpaceOnUse">
<stop stop-color="#18884F"/>
<stop offset="0.5" stop-color="#117E43"/>
<stop offset="1" stop-color="#0B6631"/>
</linearGradient>
</defs>
</svg>
