<svg width="27" height="27" viewBox="0 0 27 27" fill="none" xmlns="http://www.w3.org/2000/svg">
<path d="M1.5 4.0231C1.5 3.27637 1.5 2.903 1.64532 2.61778C1.77316 2.3669 1.97713 2.16293 2.22801 2.03509C2.51323 1.88977 2.8866 1.88977 3.63333 1.88977H23.3667C24.1135 1.88977 24.4868 1.88977 24.772 2.03509C25.0229 2.16293 25.2268 2.3669 25.3547 2.61778C25.5 2.903 25.5 3.27637 25.5 4.0231V6.33945C25.5 6.66557 25.5 6.82862 25.4632 6.98208C25.4305 7.11813 25.3767 7.24818 25.3035 7.36748C25.2211 7.50204 25.1057 7.61734 24.8752 7.84794L16.7915 15.9316C16.5609 16.1622 16.4456 16.2775 16.3632 16.412C16.29 16.5314 16.2361 16.6614 16.2035 16.7975C16.1667 16.951 16.1667 17.114 16.1667 17.44V20.5564L10.8333 25.8898V17.44C10.8333 17.114 10.8333 16.951 10.7965 16.7975C10.7638 16.6614 10.71 16.5314 10.6369 16.412C10.5544 16.2775 10.4391 16.1622 10.2085 15.9316L2.12484 7.84794C1.89424 7.61734 1.77893 7.50204 1.69648 7.36748C1.62337 7.24818 1.56951 7.11813 1.53684 6.98208C1.5 6.82862 1.5 6.66557 1.5 6.33945V4.0231Z" stroke="white" stroke-width="2" stroke-linecap="round" stroke-linejoin="round"/>
</svg>
