<svg width="20" height="21" viewBox="0 0 20 21" fill="none" xmlns="http://www.w3.org/2000/svg">
<path d="M7.64209 4.22306C7.98529 3.25207 8.9113 2.5564 9.9998 2.5564C11.0884 2.5564 12.0144 3.25207 12.3575 4.22306" stroke="white" stroke-linecap="round"/>
<path d="M17.0833 5.88977H2.9165" stroke="white" stroke-linecap="round"/>
<path d="M15.3113 13.7224C15.1638 15.9348 15.09 17.0411 14.3692 17.7154C13.6484 18.3898 12.5397 18.3898 10.3224 18.3898H9.67787C7.46054 18.3898 6.35187 18.3898 5.63103 17.7154C4.91019 17.0411 4.83644 15.9348 4.68895 13.7224L4.30566 7.97314M15.6945 7.97314L15.5279 10.4731" stroke="white" stroke-linecap="round"/>
<path d="M7.91675 10.0564L8.33341 14.2231" stroke="white" stroke-linecap="round"/>
<path d="M12.0834 10.0564L11.6667 14.2231" stroke="white" stroke-linecap="round"/>
</svg>
