<svg width="32" height="33" viewBox="0 0 32 33" fill="none" xmlns="http://www.w3.org/2000/svg">
<path d="M18.772 2.88977C18.9837 2.88978 19.1899 2.95698 19.361 3.0817C19.5321 3.20641 19.6592 3.38221 19.724 3.58377L20.824 7.00177C21.286 7.22777 21.728 7.48177 22.15 7.76777L25.662 7.01177C25.869 6.96756 26.0848 6.99022 26.2782 7.07648C26.4715 7.16274 26.6325 7.30815 26.738 7.49177L29.51 12.2898C29.6158 12.4733 29.6607 12.6857 29.638 12.8963C29.6154 13.1069 29.5264 13.305 29.384 13.4618L26.974 16.1218C27.0091 16.6318 27.0091 17.1437 26.974 17.6538L29.384 20.3178C29.5264 20.4746 29.6154 20.6726 29.638 20.8832C29.6607 21.0939 29.6158 21.3063 29.51 21.4898L26.738 26.2898C26.6322 26.473 26.4711 26.618 26.2778 26.7039C26.0844 26.7898 25.8688 26.8122 25.662 26.7678L22.15 26.0118C21.73 26.2958 21.286 26.5518 20.826 26.7778L19.724 30.1958C19.6592 30.3973 19.5321 30.5731 19.361 30.6978C19.1899 30.8226 18.9837 30.8898 18.772 30.8898H13.228C13.0163 30.8898 12.81 30.8226 12.6389 30.6978C12.4678 30.5731 12.3408 30.3973 12.276 30.1958L11.178 26.7798C10.7172 26.5545 10.2728 26.2972 9.84797 26.0098L6.33797 26.7678C6.1309 26.812 5.91514 26.7893 5.72178 26.7031C5.52841 26.6168 5.36741 26.4714 5.26197 26.2878L2.48997 21.4898C2.38412 21.3063 2.33929 21.0939 2.36193 20.8832C2.38458 20.6726 2.47353 20.4746 2.61597 20.3178L5.02597 17.6538C4.99106 17.145 4.99106 16.6345 5.02597 16.1258L2.61597 13.4618C2.47353 13.305 2.38458 13.1069 2.36193 12.8963C2.33929 12.6857 2.38412 12.4733 2.48997 12.2898L5.26197 7.48977C5.3677 7.30652 5.52882 7.16152 5.72217 7.07563C5.91551 6.98974 6.13112 6.96738 6.33797 7.01177L9.84797 7.76977C10.272 7.48377 10.716 7.22577 11.178 6.99977L12.278 3.58377C12.3425 3.38286 12.469 3.20753 12.6393 3.08287C12.8096 2.95821 13.0149 2.89062 13.226 2.88977H18.77H18.772ZM18.04 4.88977H13.96L12.824 8.42377L12.058 8.79777C11.6814 8.98205 11.3179 9.19187 10.97 9.42577L10.262 9.90577L6.62997 9.12177L4.58997 12.6578L7.07997 15.4138L7.01997 16.2618C6.99124 16.6799 6.99124 17.0996 7.01997 17.5178L7.07997 18.3658L4.58597 21.1218L6.62797 24.6578L10.26 23.8758L10.968 24.3538C11.3159 24.5877 11.6794 24.7975 12.056 24.9818L12.822 25.3558L13.96 28.8898H18.044L19.184 25.3538L19.948 24.9818C20.3241 24.7979 20.687 24.5881 21.034 24.3538L21.74 23.8758L25.374 24.6578L27.414 21.1218L24.922 18.3658L24.982 17.5178C25.0108 17.0989 25.0108 16.6786 24.982 16.2598L24.922 15.4118L27.416 12.6578L25.374 9.12177L21.74 9.90177L21.034 9.42577C20.687 9.1914 20.3242 8.98155 19.948 8.79777L19.184 8.42577L18.042 4.88977H18.04ZM16 10.8898C17.5913 10.8898 19.1174 11.5219 20.2426 12.6471C21.3678 13.7723 22 15.2985 22 16.8898C22 18.4811 21.3678 20.0072 20.2426 21.1324C19.1174 22.2576 17.5913 22.8898 16 22.8898C14.4087 22.8898 12.8826 22.2576 11.7573 21.1324C10.6321 20.0072 9.99997 18.4811 9.99997 16.8898C9.99997 15.2985 10.6321 13.7723 11.7573 12.6471C12.8826 11.5219 14.4087 10.8898 16 10.8898ZM16 12.8898C14.9391 12.8898 13.9217 13.3112 13.1715 14.0613C12.4214 14.8115 12 15.8289 12 16.8898C12 17.9506 12.4214 18.9681 13.1715 19.7182C13.9217 20.4683 14.9391 20.8898 16 20.8898C17.0608 20.8898 18.0783 20.4683 18.8284 19.7182C19.5785 18.9681 20 17.9506 20 16.8898C20 15.8289 19.5785 14.8115 18.8284 14.0613C18.0783 13.3112 17.0608 12.8898 16 12.8898Z" fill="white"/>
</svg>
