<svg width="20" height="19" viewBox="0 0 20 19" fill="none" xmlns="http://www.w3.org/2000/svg">
<path d="M18.75 1H6.25C5.55964 1 5 1.55964 5 2.25V17.25C5 17.9404 5.55964 18.5 6.25 18.5H18.75C19.4404 18.5 20 17.9404 20 17.25V2.25C20 1.55964 19.4404 1 18.75 1Z" fill="url(#paint0_linear_450_2666)"/>
<path d="M5 14.125H20V17.25C20 17.9404 19.4404 18.5 18.75 18.5H6.25C5.55964 18.5 5 17.9404 5 17.25V14.125Z" fill="url(#paint1_linear_450_2666)"/>
<path d="M20 9.75H5V14.125H20V9.75Z" fill="url(#paint2_linear_450_2666)"/>
<path d="M20 5.375H5V9.75H20V5.375Z" fill="url(#paint3_linear_450_2666)"/>
<path d="M5 7.25C5 6.21444 5.83947 5.375 6.875 5.375H10.625C11.6606 5.375 12.5 6.21444 12.5 7.25V14.75C12.5 15.7856 11.6606 16.625 10.625 16.625H5V7.25Z" fill="black" fill-opacity="0.3"/>
<path d="M10 4.125H1.25C0.559644 4.125 0 4.68464 0 5.375V14.125C0 14.8154 0.559644 15.375 1.25 15.375H10C10.6904 15.375 11.25 14.8154 11.25 14.125V5.375C11.25 4.68464 10.6904 4.125 10 4.125Z" fill="url(#paint4_linear_450_2666)"/>
<path d="M9.375 6.63388H8.15769L7.20181 10.7119L6.15604 6.625H5.12663L4.07271 10.7119L3.125 6.63388H1.875L3.50082 12.875H4.57925L5.625 8.92994L6.67075 12.875H7.74919L9.375 6.63388Z" fill="white"/>
<defs>
<linearGradient id="paint0_linear_450_2666" x1="5" y1="3.91667" x2="20" y2="3.91667" gradientUnits="userSpaceOnUse">
<stop stop-color="#2B78B1"/>
<stop offset="1" stop-color="#338ACD"/>
</linearGradient>
<linearGradient id="paint1_linear_450_2666" x1="5" y1="16.8594" x2="20" y2="16.8594" gradientUnits="userSpaceOnUse">
<stop stop-color="#1B366F"/>
<stop offset="1" stop-color="#2657B0"/>
</linearGradient>
<linearGradient id="paint2_linear_450_2666" x1="11.5625" y1="12.25" x2="20" y2="12.25" gradientUnits="userSpaceOnUse">
<stop stop-color="#20478B"/>
<stop offset="1" stop-color="#2D6FD1"/>
</linearGradient>
<linearGradient id="paint3_linear_450_2666" x1="11.5625" y1="7.875" x2="20" y2="7.875" gradientUnits="userSpaceOnUse">
<stop stop-color="#215295"/>
<stop offset="1" stop-color="#2E84D3"/>
</linearGradient>
<linearGradient id="paint4_linear_450_2666" x1="2.06961e-08" y1="10.375" x2="11.875" y2="10.375" gradientUnits="userSpaceOnUse">
<stop stop-color="#223E74"/>
<stop offset="1" stop-color="#215091"/>
</linearGradient>
</defs>
</svg>
