<svg width="538" height="538" viewBox="0 0 538 538" fill="none" xmlns="http://www.w3.org/2000/svg">
<path d="M297.299 466.997C296.955 466.997 296.612 466.905 296.304 466.727L129.578 368.649C129.105 368.373 128.772 367.91 128.656 367.374C128.541 366.839 128.653 366.282 128.968 365.833L263.253 175.005C263.876 174.119 265.099 173.905 265.985 174.528C266.871 175.152 267.085 176.374 266.461 177.26L133.405 366.349L295.513 461.71L300.778 364.287C300.837 363.205 301.748 362.385 302.841 362.434C303.923 362.494 304.75 363.419 304.694 364.497L299.254 465.139C299.216 465.822 298.827 466.439 298.221 466.761C297.934 466.919 297.615 466.996 297.296 466.996L297.299 466.997ZM304.328 336.98C304.293 336.98 304.258 336.98 304.22 336.976C303.137 336.917 302.311 335.992 302.367 334.913L314.584 108.891L283.393 153.213C282.77 154.099 281.548 154.313 280.661 153.689C279.775 153.066 279.561 151.843 280.185 150.957L315.309 101.049C315.814 100.334 316.728 100.036 317.554 100.324C318.381 100.611 318.917 101.409 318.871 102.282L306.283 335.128C306.227 336.172 305.362 336.981 304.329 336.981L304.328 336.98Z" fill="white"/>
<path d="M454.216 368.919H344.257C343.175 368.919 342.296 368.04 342.296 366.958C342.296 365.876 343.175 364.996 344.257 364.996H451.122L374.751 202.709L156.234 285.595C155.218 285.98 154.087 285.469 153.705 284.456C153.319 283.444 153.831 282.309 154.843 281.928L375.064 198.398C376.021 198.037 377.096 198.468 377.534 199.396L455.992 366.122C456.279 366.728 456.234 367.443 455.873 368.01C455.516 368.577 454.892 368.921 454.22 368.921L454.216 368.919ZM314.838 368.919H130.573C129.918 368.919 129.305 368.59 128.941 368.047L89.7114 309.203C89.3787 308.706 89.2946 308.086 89.4767 307.515C89.6589 306.948 90.0897 306.492 90.6501 306.279L127.336 292.362C128.352 291.977 129.483 292.489 129.865 293.501C130.25 294.513 129.739 295.648 128.727 296.03L94.3415 309.07L131.623 364.996H314.839C315.921 364.996 316.8 365.875 316.8 366.957C316.797 368.04 315.918 368.919 314.836 368.919L314.838 368.919Z" fill="white"/>
<path d="M91.3432 310.08C90.8809 310.08 90.4221 309.915 90.0578 309.6C89.5114 309.131 89.2697 308.395 89.4273 307.691L128.656 131.155C128.772 130.63 129.101 130.174 129.564 129.898C130.026 129.621 130.583 129.548 131.098 129.691L220.029 154.592C221.073 154.882 221.682 155.965 221.388 157.008C221.097 158.052 220.012 158.662 218.971 158.367L132.033 134.025L94.0406 304.983L196.655 266.062C197.667 265.677 198.802 266.189 199.184 267.201C199.569 268.213 199.058 269.348 198.046 269.73L92.0417 309.947C91.814 310.031 91.5794 310.073 91.3447 310.073L91.3432 310.08ZM224.866 259.436C224.074 259.436 223.328 258.953 223.03 258.172C222.645 257.159 223.157 256.024 224.169 255.643L369.483 200.522L247.312 166.312C246.268 166.022 245.658 164.939 245.953 163.895C246.243 162.852 247.326 162.242 248.37 162.537L376.288 198.354C377.104 198.582 377.682 199.307 377.721 200.154C377.759 201.002 377.248 201.776 376.456 202.077L225.565 259.313C225.33 259.394 225.092 259.436 224.865 259.436L224.866 259.436Z" fill="white"/>
<path d="M444.406 476.806C432.507 476.806 422.831 467.128 422.831 455.23C422.831 443.332 432.508 433.655 444.406 433.655C456.304 433.655 465.982 443.332 465.982 455.23C465.982 467.128 456.304 476.806 444.406 476.806ZM444.406 437.577C434.673 437.577 426.753 445.496 426.753 455.23C426.753 464.965 434.672 472.884 444.406 472.884C454.14 472.884 462.06 464.965 462.06 455.23C462.06 445.496 454.14 437.577 444.406 437.577Z" fill="white"/>
<path d="M209.031 104.125C197.132 104.125 187.455 94.4469 187.455 82.549C187.455 70.6511 197.133 60.9734 209.031 60.9734C220.929 60.9734 230.607 70.6511 230.607 82.549C230.607 94.4469 220.929 104.125 209.031 104.125ZM209.031 64.8954C199.298 64.8954 191.377 72.8148 191.377 82.549C191.377 92.2832 199.297 100.203 209.031 100.203C218.765 100.203 226.684 92.2832 226.684 82.549C226.684 72.8148 218.765 64.8954 209.031 64.8954Z" fill="white"/>
<path d="M395.367 339.5C394.849 339.5 394.348 339.282 393.973 338.922C393.609 338.557 393.406 338.05 393.406 337.538C393.406 337.016 393.613 336.508 393.973 336.144C394.709 335.419 396.022 335.419 396.748 336.144C397.119 336.515 397.325 337.016 397.325 337.538C397.325 338.05 397.119 338.557 396.748 338.922C396.387 339.282 395.886 339.5 395.367 339.5Z" fill="white"/>
<path d="M365.948 339.5C365.429 339.5 364.929 339.282 364.564 338.922C364.193 338.557 363.986 338.05 363.986 337.538C363.986 337.016 364.193 336.508 364.564 336.144C365.279 335.419 366.603 335.419 367.331 336.144C367.703 336.515 367.909 337.016 367.909 337.538C367.909 338.05 367.703 338.557 367.342 338.922C366.967 339.282 366.466 339.5 365.948 339.5H365.948Z" fill="white"/>
<path d="M336.528 339.5C336.01 339.5 335.509 339.282 335.134 338.922C334.77 338.557 334.567 338.05 334.567 337.538C334.567 337.016 334.773 336.519 335.134 336.144C335.87 335.419 337.183 335.419 337.908 336.144C338.279 336.515 338.486 337.016 338.486 337.538C338.486 338.05 338.279 338.557 337.919 338.922C337.547 339.282 337.047 339.5 336.528 339.5H336.528Z" fill="white"/>
<path d="M336.528 310.08C336.017 310.08 335.509 309.863 335.134 309.502C334.77 309.138 334.567 308.63 334.567 308.118C334.567 307.596 334.773 307.099 335.134 306.724C335.87 305.999 337.183 305.999 337.908 306.724C338.279 307.096 338.486 307.596 338.486 308.118C338.486 308.63 338.279 309.138 337.908 309.502C337.547 309.863 337.04 310.08 336.528 310.08Z" fill="white"/>
<path d="M336.528 280.66C336.01 280.66 335.509 280.443 335.145 280.082C334.773 279.718 334.567 279.21 334.567 278.699C334.567 278.177 334.773 277.679 335.134 277.305C335.87 276.58 337.183 276.58 337.908 277.305C338.279 277.676 338.486 278.177 338.486 278.699C338.486 279.21 338.279 279.718 337.919 280.082C337.547 280.443 337.047 280.66 336.528 280.66Z" fill="white"/>
<path d="M71.7334 445.423H91.348V465.037H71.7334V445.423Z" fill="white"/>
<path d="M101.153 445.423H120.768V465.037H101.153V445.423Z" fill="white"/>
<path d="M130.573 445.423H150.187V465.037H130.573V445.423Z" fill="white"/>
<path d="M159.992 445.423H179.607V465.037H159.992V445.423Z" fill="white"/>
</svg>
